<svg fill="#FFFFFF" xmlns="http://www.w3.org/2000/svg"  viewBox="0 0 50 50" width="50px" height="50px"><path d="M 25 1 A 2.5 2.5 0 0 0 22.509766 3.2851562 L 7.2539062 12.119141 A 2.5 2.5 0 0 0 6.5 12 A 2.5 2.5 0 0 0 5 16.498047 L 5 33.503906 A 2.5 2.5 0 0 0 6.5 38 A 2.5 2.5 0 0 0 7.2558594 37.882812 L 22.513672 46.716797 A 2.5 2.5 0 0 0 25 49 A 2.5 2.5 0 0 0 27.490234 46.714844 L 42.746094 37.880859 A 2.5 2.5 0 0 0 43.5 38 A 2.5 2.5 0 0 0 45 33.501953 L 45 16.496094 A 2.5 2.5 0 0 0 43.5 12 A 2.5 2.5 0 0 0 42.744141 12.117188 L 27.486328 3.2832031 A 2.5 2.5 0 0 0 25 1 z M 22.271484 5.7363281 L 15.134766 18.130859 L 8.9960938 14.578125 A 2.5 2.5 0 0 0 8.8027344 13.533203 L 22.271484 5.7363281 z M 27.730469 5.7363281 L 41.197266 13.533203 A 2.5 2.5 0 0 0 41.001953 14.580078 L 34.867188 18.132812 L 27.730469 5.7363281 z M 24.460938 5.9394531 A 2.5 2.5 0 0 0 25 6 A 2.5 2.5 0 0 0 25.539062 5.9394531 L 33.134766 19.134766 L 26.480469 22.986328 A 2.5 2.5 0 0 0 25 22.5 A 2.5 2.5 0 0 0 23.521484 22.988281 L 16.865234 19.134766 L 24.460938 5.9394531 z M 8.1347656 16.390625 L 14.136719 19.865234 L 7 32.259766 L 7 16.949219 A 2.5 2.5 0 0 0 8.1347656 16.390625 z M 41.867188 16.390625 A 2.5 2.5 0 0 0 43 16.947266 L 43 32.261719 L 35.865234 19.865234 L 41.867188 16.390625 z M 15.867188 20.867188 L 22.519531 24.71875 A 2.5 2.5 0 0 0 24 27.289062 L 24 35 L 8.9472656 35 A 2.5 2.5 0 0 0 8.3867188 33.861328 L 15.867188 20.867188 z M 34.132812 20.867188 L 41.615234 33.861328 A 2.5 2.5 0 0 0 41.054688 35 L 26 35 L 26 27.289062 A 2.5 2.5 0 0 0 27.482422 24.71875 L 34.132812 20.867188 z M 9.7226562 37 L 24 37 L 24 44.210938 A 2.5 2.5 0 0 0 23.179688 44.789062 L 9.7226562 37 z M 26 37 L 40.277344 37 L 26.820312 44.789062 A 2.5 2.5 0 0 0 26 44.210938 L 26 37 z"/></svg>